<svg width="46" height="46" viewBox="0 0 46 46" fill="none" xmlns="http://www.w3.org/2000/svg">
<circle cx="23" cy="23" r="18" fill="url(#paint0_linear_958_1691)"/>
<path d="M28.9913 19.0174L28.4722 20.8003H18L18.5191 19.0174H28.9913ZM24.2969 31.4306L18.3273 24.4566L18.316 23.0573H21.0694C21.8669 23.0573 22.5252 22.9256 23.0443 22.6623C23.5709 22.3915 23.9659 22.0266 24.2292 21.5677C24.4925 21.1088 24.6241 20.5935 24.6241 20.0217C24.6241 19.3822 24.5 18.8218 24.2517 18.3403C24.0035 17.8513 23.6123 17.4714 23.0781 17.2005C22.5515 16.9222 21.8594 16.783 21.0017 16.783H18.0226L18.553 15H21.0017C22.3108 15 23.3903 15.1994 24.2405 15.5981C25.0981 15.9893 25.7376 16.5611 26.1589 17.3134C26.5802 18.0657 26.7908 18.976 26.7908 20.0443C26.7908 20.9621 26.614 21.7859 26.2604 22.5156C25.9144 23.2378 25.3388 23.8058 24.5339 24.2196C23.7364 24.6334 22.6606 24.8403 21.3064 24.8403L26.8585 31.2951V31.4306H24.2969ZM28.9913 15L28.4722 16.783H20.0312L20.5503 15H28.9913Z" fill="white"/>
<defs>
<linearGradient id="paint0_linear_958_1691" x1="23" y1="5" x2="23" y2="41" gradientUnits="userSpaceOnUse">
<stop stop-color="#F49037"/>
<stop offset="1" stop-color="#F07748"/>
</linearGradient>
</defs>
</svg>
