<svg width="46" height="46" viewBox="0 0 46 46" fill="none" xmlns="http://www.w3.org/2000/svg">
<path d="M41.8088 24.5651C41.9469 24.6428 41.9745 24.8074 41.98 24.8701L41.9814 24.8951L41.828 34.7938C41.828 38.7423 38.7686 41.9623 34.9162 42.1597L34.541 42.1693H11.4528C7.55165 42.1693 4.37034 39.0727 4.17531 35.1735L4.16584 34.7938L4.03161 24.8951C4.03161 24.8951 4.03161 24.6622 4.20419 24.5651C4.3576 24.4681 4.54937 24.5845 4.56854 24.604C8.44214 27.2048 13.102 28.9322 17.9919 29.6503C18.6823 29.7474 19.3726 29.301 19.5644 28.6022C19.9599 27.1102 21.1812 26.0957 22.6754 25.9748L22.9777 25.9626H23.0353C24.6653 25.9626 26.0268 27.0107 26.4486 28.6022C26.6404 29.301 27.3308 29.7474 28.0211 29.6503C32.911 28.9322 37.5709 27.2048 41.4445 24.604C41.4445 24.604 41.4828 24.5845 41.5212 24.5651C41.5979 24.5263 41.7129 24.5069 41.8088 24.5651ZM22.9969 28.7381C22.2762 28.7381 21.6683 29.2926 21.572 29.998L21.5587 30.1938V32.6976C21.5587 33.5128 22.2107 34.1533 22.9969 34.1533C23.7352 34.1533 24.3285 33.6151 24.4222 32.8975L24.4351 32.6976V30.1938C24.4351 29.398 23.8023 28.7381 22.9969 28.7381ZM25.4707 3.83594C28.3471 3.83594 30.7058 6.02918 31.0701 8.84351H34.867C38.894 8.84351 42.1732 12.1625 42.1732 16.2384C42.1732 16.2384 42.0581 17.9639 42.0198 20.3667C42.0159 20.5569 41.9239 20.7433 41.7724 20.8559C40.85 21.5371 40.0063 22.1 39.9296 22.1388C36.7463 24.2738 33.0472 25.7761 29.1065 26.5233C28.8495 26.5738 28.5964 26.4399 28.466 26.2108C27.3614 24.2971 25.2981 23.051 22.9969 23.051C20.7111 23.051 18.6286 24.2835 17.4914 26.1992C17.3591 26.4243 17.1098 26.5544 16.8548 26.5059C12.9466 25.7567 9.24755 24.2563 6.08347 22.1582L4.24255 20.8772C4.08914 20.7802 3.99325 20.6055 3.99325 20.4114C3.93573 19.4215 3.83984 16.2384 3.83984 16.2384C3.83984 12.1625 7.11898 8.84351 11.146 8.84351H14.9237C15.2881 6.02918 17.6467 3.83594 20.5232 3.83594H25.4707ZM25.4707 6.74732H20.5232C19.2384 6.74732 18.1453 7.64014 17.8385 8.84351H28.1553C27.8485 7.64014 26.7555 6.74732 25.4707 6.74732Z" fill="url(#paint0_linear_958_1682)"/>
<defs>
<linearGradient id="paint0_linear_958_1682" x1="23.0065" y1="3.83594" x2="23.0065" y2="42.1693" gradientUnits="userSpaceOnUse">
<stop stop-color="#F49037"/>
<stop offset="1" stop-color="#F07748"/>
</linearGradient>
</defs>
</svg>
