<svg width="46" height="46" viewBox="0 0 46 46" fill="none" xmlns="http://www.w3.org/2000/svg">
<path d="M22.8997 27.865C29.4761 27.865 35.0915 28.9076 35.0915 33.0797C35.0915 37.2502 29.5122 38.3307 22.8997 38.3307C16.3233 38.3307 10.7079 37.2881 10.7079 33.1177C10.7079 28.9456 16.2872 27.865 22.8997 27.865ZM33.4146 25.3527C35.9288 25.3061 38.6318 25.6514 39.6307 25.8965C41.7467 26.3125 43.1385 27.1618 43.7152 28.396C44.2026 29.4092 44.2026 30.5847 43.7152 31.5963C42.8331 33.5106 39.9893 34.1251 38.8841 34.2839C38.6559 34.3184 38.4722 34.1199 38.4963 33.8903C39.0609 28.5858 34.5696 26.0708 33.4078 25.4926C33.358 25.4667 33.3477 25.427 33.3528 25.4028C33.3563 25.3855 33.3769 25.3579 33.4146 25.3527ZM12.108 25.3492L12.5815 25.3534C12.6192 25.3586 12.6381 25.3862 12.6415 25.4018C12.6467 25.4277 12.6364 25.4656 12.5883 25.4933C11.4248 26.0715 6.93349 28.5865 7.49811 33.8893C7.52214 34.1206 7.34022 34.3174 7.11197 34.2846C6.00674 34.1258 3.16302 33.5113 2.2809 31.597C1.79178 30.5837 1.79178 29.4099 2.2809 28.3967C2.85754 27.1625 4.24765 26.3132 6.36371 25.8955C7.36425 25.6521 10.0655 25.3068 12.5815 25.3534L12.108 25.3492ZM22.8997 7.66406C27.3772 7.66406 30.9675 11.2717 30.9675 15.777C30.9675 20.2806 27.3772 23.8917 22.8997 23.8917C18.4222 23.8917 14.8319 20.2806 14.8319 15.777C14.8319 11.2717 18.4222 7.66406 22.8997 7.66406ZM33.8522 9.01703C38.177 9.01703 41.5734 13.1098 40.4167 17.6686C39.6358 20.7377 36.8092 22.7763 33.66 22.6934C33.3443 22.6848 33.0336 22.6554 32.7333 22.6037C32.5153 22.5657 32.4055 22.3188 32.5291 22.1359C33.7304 20.3579 34.4152 18.2192 34.4152 15.9234C34.4152 13.5275 33.6669 11.2938 32.3677 9.46238C32.3266 9.40542 32.2957 9.31738 32.3369 9.25179C32.3712 9.19828 32.4347 9.17066 32.4947 9.15685C32.9324 9.06709 33.382 9.01703 33.8522 9.01703ZM12.1413 9.01686C12.6115 9.01686 13.0611 9.06692 13.5005 9.15668C13.5588 9.17049 13.624 9.19983 13.6584 9.25161C13.6978 9.31721 13.6687 9.40524 13.6275 9.46221C12.3283 11.2937 11.5801 13.5273 11.5801 15.9232C11.5801 18.219 12.2648 20.3577 13.4662 22.1357C13.5897 22.3187 13.4799 22.5655 13.2619 22.6035C12.9599 22.657 12.651 22.6846 12.3352 22.6932C9.18598 22.7761 6.35942 20.7375 5.57855 17.6684C4.42013 13.1096 7.81646 9.01686 12.1413 9.01686Z" fill="url(#paint0_linear_958_1699)"/>
<defs>
<linearGradient id="paint0_linear_958_1699" x1="22.9974" y1="7.66406" x2="22.9974" y2="38.3307" gradientUnits="userSpaceOnUse">
<stop stop-color="#F49037"/>
<stop offset="1" stop-color="#F07748"/>
</linearGradient>
</defs>
</svg>
